PathFileType	4	(X/Y/Z)	c:/Users/goper/Files/vsCode/490R/osim_files/A03/A03_Static02.trc
DataRate	CameraRate	NumFrames	NumMarkers	Units                	OrigDataRate	OrigDataStartFrame	OrigNumFrames
250.00	250.00	10	36	mm	250.0	1392	2227
                Frame#	Time	LPSIS			LASIS			LTH1			LTH2			LTH3			LTH4			LLFE			LMFE			LSH1			LSH2			LSH3			LSH4			LLMAL			LMMAL			LCAL			LMTP5			LTOE			LMTP1			RPSIS			RASIS			RTH1			RTH2			RTH3			RTH4			RLFE			RMFE			RSH1			RSH2			RSH3			RSH4			RLMAL			RMMAL			RCAL			RMTP1			RTOE			RMTP5		
		X1	Y1	Z1	X2	Y2	Z2	X3	Y3	Z3	X4	Y4	Z4	X5	Y5	Z5	X6	Y6	Z6	X7	Y7	Z7	X8	Y8	Z8	X9	Y9	Z9	X10	Y10	Z10	X11	Y11	Z11	X12	Y12	Z12	X13	Y13	Z13	X14	Y14	Z14	X15	Y15	Z15	X16	Y16	Z16	X17	Y17	Z17	X18	Y18	Z18	X19	Y19	Z19	X20	Y20	Z20	X21	Y21	Z21	X22	Y22	Z22	X23	Y23	Z23	X24	Y24	Z24	X25	Y25	Z25	X26	Y26	Z26	X27	Y27	Z27	X28	Y28	Z28	X29	Y29	Z29	X30	Y30	Z30	X31	Y31	Z31	X32	Y32	Z32	X33	Y33	Z33	X34	Y34	Z34	X35	Y35	Z35	X36	Y36	Z36

1392	5.56400	-360.74570	1058.01099	410.35449	-114.20606	987.57642	303.74432	-185.12373	646.37238	232.17552	-173.78040	604.64026	228.45207	-122.26044	653.04254	242.19177	-122.47088	609.19635	239.32593	-180.63208	558.91754	234.82889	-134.93813	529.85992	382.42313	-236.88884	478.49658	236.18001	-242.14700	430.30301	232.87845	-176.31267	464.64587	228.01729	-190.69922	419.32956	229.70673	-287.50415	103.94408	231.95567	-257.23077	104.47276	321.24130	-347.17407	85.85287	297.74741	-148.36452	41.85423	182.76570	-102.98125	68.43773	243.98637	-122.62048	47.96154	294.20636	-367.08328	1063.78796	491.21368	-127.50919	987.89777	605.98657	-221.67191	633.25366	673.93719	-214.80226	589.33990	670.45221	-160.01569	636.89258	678.22754	-160.59607	592.16815	673.75104	-194.34724	545.99518	662.88452	-136.01010	540.40735	550.18103	-252.22713	484.88275	658.81543	-261.69296	446.21509	673.80304	-193.91716	470.78543	674.96698	-212.50732	429.23541	687.15161	-287.26663	128.99063	661.98633	-243.93883	128.77054	587.42511	0.00000	0.00000	0.00000	-122.03853	47.90733	595.90137	-99.96404	70.69368	648.60120	-142.49980	42.30328	713.17303
1393	5.56800	-360.73212	1058.01733	410.35794	-114.20210	987.56842	303.75122	-185.11830	646.39673	232.18773	-173.74135	604.62146	228.44316	-122.24232	653.04919	242.18245	-122.46555	609.19580	239.32002	-180.62094	558.90405	234.83136	-134.94296	529.84589	382.42151	-236.87492	478.48770	236.19467	-242.15913	430.30981	232.88666	-176.31474	464.65060	227.98663	-190.69267	419.32468	229.68570	-287.48013	103.94046	231.91916	-257.23099	104.48663	321.24377	-347.18115	85.87068	297.76501	-148.35689	41.84425	182.77544	-103.00172	68.42405	243.95299	-122.64455	47.96077	294.20120	-367.07178	1063.79919	491.22919	-127.51277	987.89215	605.95959	-221.66318	633.26801	673.94611	-214.84404	589.35541	670.44171	-160.03281	636.88306	678.21918	-160.59238	592.20270	673.75793	-194.38976	546.00244	662.89813	-136.01137	540.42499	550.18506	-252.25279	484.88699	658.82178	-261.70816	446.24438	673.79669	-193.91322	470.81332	674.96411	-211.42163	429.65173	687.23926	-287.25925	129.00711	662.01233	-243.95844	128.77347	587.45386	0.00000	0.00000	0.00000	-122.05275	47.90847	595.89954	-99.98612	70.69350	648.60187	-142.53169	42.31394	713.18359
1394	5.57200	-360.71652	1058.00232	410.34866	-114.17809	987.56165	303.74356	-185.11856	646.37579	232.17372	-173.73230	604.61566	228.43237	-122.22703	653.04504	242.19926	-122.47158	609.18420	239.32962	-180.63831	558.90887	234.84569	-134.94534	529.86298	382.41498	-236.88196	478.49707	236.18721	-242.13976	430.30795	232.87286	-176.30296	464.63943	227.99611	-190.71271	419.33417	229.69724	-287.50403	103.92815	231.96498	-257.22861	104.48920	321.25098	-347.18204	85.86165	297.75076	-148.34889	41.83474	182.76692	-103.04953	68.40831	243.96619	-122.65772	47.95629	294.21173	-367.01239	1063.80212	491.21414	-127.52243	987.89325	605.95166	-221.70586	633.28662	673.94635	-214.86247	589.37402	670.44623	-160.05910	636.90173	678.24896	-160.59404	592.20892	673.75830	-194.39864	546.00958	662.89716	-135.98236	540.45447	550.17987	-252.28189	484.89139	658.82776	-261.71811	446.24786	673.79663	-193.93471	470.82730	674.95630	-212.11131	429.48074	687.28638	-287.28549	129.00427	661.99396	-243.93152	128.76183	587.45892	0.00000	0.00000	0.00000	-122.03107	47.91235	595.89008	-99.99160	70.69592	648.59937	-142.53099	42.31222	713.18317
1395	5.57600	-360.68832	1058.00623	410.35919	-114.15616	987.57227	303.72595	-185.15559	646.33655	232.18434	-173.72733	604.62421	228.43878	-122.23811	653.02850	242.17059	-122.44232	609.19214	239.31963	-180.60139	558.91223	234.81064	-134.91512	529.87854	382.39294	-236.86981	478.48569	236.17648	-242.13199	430.30920	232.87729	-176.27765	464.64896	227.99983	-190.69186	419.33478	229.67284	-287.48840	103.94230	231.94118	-257.22107	104.47923	321.25269	-347.16626	85.87410	297.77588	-148.36559	41.84544	182.76511	-102.94367	68.47911	243.97348	-122.63909	47.97035	294.18710	-367.00122	1063.80945	491.21213	-127.49289	987.92578	605.93250	-221.71542	633.62048	674.16699	-214.88316	589.39368	670.42377	-160.04509	636.91132	678.24719	-160.60606	592.19537	673.75574	-194.40373	546.03638	662.90991	-135.96477	540.44299	550.18262	-252.31400	484.91226	658.81836	-261.72620	446.25415	673.78741	-193.95294	470.81415	674.95911	-211.42268	429.66983	687.25995	-287.27112	129.03273	662.02802	-243.95000	128.77731	587.46088	0.00000	0.00000	0.00000	-122.03130	47.93557	595.90485	-99.96973	70.68172	648.61108	-142.52567	42.31194	713.16895
1396	5.58000	-360.72330	1058.02881	410.34393	-114.15071	987.55273	303.70648	-185.11061	646.37897	232.16046	-173.71649	604.62012	228.41956	-122.20776	653.05157	242.17876	-122.42825	609.18250	239.30963	-180.58891	558.90106	234.79742	-134.89720	529.88940	382.37936	-236.86089	478.49417	236.16502	-242.13150	430.31519	232.85550	-176.25652	464.63901	227.97371	-190.68623	419.31482	229.68036	-287.51562	103.93398	231.96901	-257.23288	104.48357	321.22711	-347.17136	85.85404	297.76395	-148.33746	41.83913	182.76231	-102.90736	68.53004	243.96384	-122.63738	47.98011	294.19492	-367.02612	1063.81970	491.20917	-127.49290	987.93475	605.92010	-221.72211	633.62512	674.16718	-214.89149	589.41290	670.41663	-160.04070	636.91803	678.21149	-160.60680	592.23181	673.75787	-194.40012	546.03363	662.89996	-135.96199	540.43744	550.18494	-252.30644	484.93524	658.80988	-261.74838	446.27792	673.78058	-193.94753	470.84525	674.95685	-211.41052	429.68503	687.25946	-287.26904	129.03714	662.00842	-243.92390	128.78296	587.46307	0.00000	0.00000	0.00000	-122.02810	47.92591	595.90704	-99.98628	70.68053	648.60675	-142.50314	42.32237	713.17041
1397	5.58400	-360.66818	1058.03931	410.35538	-114.13984	987.56537	303.72476	-185.07677	646.37634	232.12964	-173.70261	604.62012	228.40807	-122.19772	653.03088	242.15860	-122.42233	609.16058	239.29536	-180.58708	558.92767	234.81488	-134.85695	529.89630	382.36954	-236.85838	478.50085	236.19809	-242.11545	430.29398	232.87700	-176.24297	464.64786	227.98306	-190.66913	419.33722	229.67261	-287.49011	103.94214	231.95210	-257.20099	104.49859	321.21753	-347.16412	85.86419	297.76288	-148.33948	41.84521	182.75325	-102.91779	68.49312	243.94081	-122.62689	47.99277	294.18265	-366.99136	1063.84265	491.19568	-127.47164	987.94501	605.91718	-221.71872	633.32904	673.91937	-214.87685	589.41968	670.42230	-160.03053	636.94025	678.21918	-160.60666	592.22559	673.76880	-194.38605	546.04419	662.89166	-135.97813	540.45380	550.20813	-252.28790	484.95676	658.79462	-261.72778	446.28070	673.78131	-193.93921	470.86267	674.96436	-212.54912	429.30801	687.13025	-287.25745	129.03513	662.01337	-243.90018	128.77971	587.47314	0.00000	0.00000	0.00000	-122.02287	47.92838	595.91449	-99.96835	70.68201	648.60504	-142.48740	42.32455	713.16614
1398	5.58800	-360.70654	1058.05383	410.37073	-114.16810	987.54852	303.72293	-185.06500	646.36517	232.13094	-173.70029	604.62500	228.39296	-122.19296	653.02606	242.15312	-122.40507	609.16357	239.29192	-180.57355	558.93280	234.80153	-134.85629	529.88849	382.37186	-236.84247	478.48236	236.17355	-242.10681	430.30344	232.85712	-176.23918	464.65558	227.95380	-190.65268	419.32886	229.65555	-287.51318	103.94447	231.95815	-257.21741	104.49805	321.22507	-347.15024	85.87326	297.76794	-148.34831	41.86090	182.75681	-102.90832	68.51449	243.96257	-122.61040	47.99363	294.17859	-366.96841	1063.86035	491.16992	-127.44667	987.94366	605.91449	-221.71338	633.65485	674.16803	-214.87540	589.43604	670.42950	-160.05402	636.94421	678.22833	-160.62619	592.24591	673.75653	-194.38983	546.04865	662.87878	-135.93970	540.47729	550.20563	-252.29591	484.94913	658.81036	-261.73151	446.28540	673.77875	-193.95924	470.87415	674.96332	-211.46365	429.69028	687.24225	-287.24344	129.05185	662.02094	-243.90108	128.78456	587.48029	0.00000	0.00000	0.00000	-122.03374	47.93811	595.90472	-99.94577	70.68791	648.60327	-142.47667	42.31826	713.16974
1399	5.59200	-360.63281	1058.06787	410.33945	-114.12404	987.54926	303.71719	-185.05367	646.37183	232.12711	-173.70956	604.61798	228.40924	-122.16307	653.03009	242.13492	-122.40090	609.16431	239.29337	-180.53708	558.92725	234.79160	-134.86917	529.87396	382.36060	-236.83643	478.49210	236.17561	-242.07840	430.30594	232.84595	-176.24962	464.63818	227.97150	-190.65347	419.32941	229.64958	-287.48331	103.95157	231.93948	-257.20343	104.48063	321.23483	-347.16965	85.86559	297.76630	-148.34924	41.84717	182.75520	-102.93795	68.46590	243.97299	-122.64111	47.95622	294.18533	-366.97543	1063.88379	491.15356	-127.44683	987.93011	605.92200	-221.71942	633.33240	673.90948	-214.87018	589.44110	670.42645	-160.06471	636.92419	678.25922	-160.65364	592.22308	673.76288	-194.42252	546.07812	662.90112	-135.94991	540.47308	550.22009	-252.27806	484.95230	658.80963	-261.73132	446.28198	673.80084	-193.93938	470.87421	674.97888	-211.41301	429.74069	687.25494	-287.25317	129.04654	662.06488	-243.88162	128.80472	587.47699	0.00000	0.00000	0.00000	-122.02653	47.92760	595.93353	-99.95039	70.66918	648.60852	-142.47589	42.29899	713.16339
1400	5.59600	-360.64508	1058.07544	410.31409	-114.11535	987.55310	303.70190	-185.04724	646.37976	232.09785	-173.67699	604.61591	228.37668	-122.17930	653.03192	242.12894	-122.39558	609.16241	239.27844	-180.54921	558.92108	234.77782	-134.88371	529.86041	382.36801	-236.83151	478.49426	236.15976	-242.09621	430.32709	232.84985	-176.23677	464.63654	227.95621	-190.64578	419.31027	229.65727	-287.51208	103.94262	231.95769	-257.19119	104.48927	321.25244	-347.17767	85.89323	297.75476	-148.34056	41.86409	182.75388	-102.95623	68.47948	243.98228	-122.63584	47.97242	294.21521	-366.96603	1063.87476	491.13864	-127.44479	987.93292	605.91931	-221.74507	633.36945	673.92169	-214.90138	589.44226	670.42645	-160.09531	636.91418	678.24115	-160.66740	592.23291	673.78772	-194.44073	546.06995	662.92627	-135.93840	540.46069	550.22449	-252.32118	484.96680	658.81982	-261.74509	446.28671	673.78778	-193.97308	470.87344	674.96411	-211.42630	429.71304	687.26788	-287.25223	129.04877	662.05780	-243.86647	128.80835	587.49860	0.00000	0.00000	0.00000	-122.03096	47.91498	595.92200	-99.97797	70.66439	648.63092	-142.49512	42.29939	713.19562
1401	5.60000	-360.64355	1058.09607	410.31882	-114.10677	987.54797	303.68732	-185.03795	646.37720	232.08138	-173.67337	604.61432	228.38713	-122.15281	653.01825	242.11206	-122.40881	609.14398	239.27689	-180.56828	558.91650	234.78409	-134.86769	529.87195	382.37213	-236.83716	478.50406	236.16211	-242.08528	430.31995	232.84145	-176.25005	464.63025	227.95554	-190.64096	419.33472	229.65855	-287.48215	103.94360	231.94235	-257.21152	104.48590	321.25638	-347.15765	85.88911	297.75406	-148.34145	41.85303	182.74393	-102.96076	68.44627	244.00000	-122.66948	47.91690	294.22482	-366.94553	1063.88599	491.14288	-127.43451	987.92670	605.92053	-221.74142	633.64941	674.15735	-214.92226	589.43799	670.41992	-160.11736	636.93097	678.26068	-160.67969	592.22699	673.79944	-194.43907	546.07129	662.93353	-135.97366	540.47388	550.22040	-252.30066	484.96310	658.81592	-261.76794	446.29199	673.79987	-193.96904	470.88391	674.98364	-212.33585	429.35001	687.13782	-287.24542	129.03586	662.05499	-243.89064	128.80003	587.50024	0.00000	0.00000	0.00000	-122.01627	47.90359	595.94629	-99.98079	70.64980	648.65326	-142.50064	42.28114	713.19922
